<svg xmlns="http://www.w3.org/2000/svg">
    <symbol viewBox="0 0 19 19" id="search">
        <path d="M17.3333 17.4998L13.595 13.7548L17.3333 17.4998ZM15.6667 8.74984C15.6667 10.6285 14.9204 12.4301 13.592 13.7585C12.2636 15.0869 10.462 15.8332 8.58333 15.8332C6.70472 15.8332 4.90304 15.0869 3.57466 13.7585C2.24628 12.4301 1.5 10.6285 1.5 8.74984C1.5 6.87122 2.24628 5.06955 3.57466 3.74116C4.90304 2.41278 6.70472 1.6665 8.58333 1.6665C10.462 1.6665 12.2636 2.41278 13.592 3.74116C14.9204 5.06955 15.6667 6.87122 15.6667 8.74984V8.74984Z"  stroke-width="2" stroke-linecap="round"/>
    </symbol> 

    <symbol viewBox="0 0 14 9" id="strelka">
         <path d="M13 1L7 7L1 0.999999"  stroke-opacity="0.75" stroke-width="2"/>  
    </symbol> 

    <symbol viewBox="0 0 40 40" id="logo">
        <path fill-rule="evenodd" clip-rule="evenodd" d="M36 20C36 28.8366 28.8366 36 20 36C11.1634 36 4 28.8366 4 20C4 11.1634 11.1634 4 20 4C28.8366 4 36 11.1634 36 20ZM40 20C40 31.0457 31.0457 40 20 40C8.9543 40 0 31.0457 0 20C0 8.9543 8.9543 0 20 0C31.0457 0 40 8.9543 40 20ZM27 20C27 23.866 23.866 27 20 27C16.134 27 13 23.866 13 20C13 16.134 16.134 13 20 13C23.866 13 27 16.134 27 20ZM31 20C31 26.0751 26.0751 31 20 31C13.9249 31 9 26.0751 9 20C9 13.9249 13.9249 9 20 9C26.0751 9 31 13.9249 31 20Z" />
    </symbol> 
</svg>